<svg xmlns="http://www.w3.org/2000/svg" xmlns:xlink="http://www.w3.org/1999/xlink" width="500" zoomAndPan="magnify" viewBox="0 0 375 374.999991" height="500" preserveAspectRatio="xMidYMid meet" version="1.0"><defs><g/><clipPath id="a5ac5fbc64"><path d="M 166.503906 178.179688 L 317.902344 178.179688 L 317.902344 203 L 166.503906 203 Z M 166.503906 178.179688 " clip-rule="nonzero"/></clipPath></defs><g fill="#000000" fill-opacity="1"><g transform="translate(176.196138, 209.369129)"><g><path d="M 5.183594 -90.730469 L 5.183594 0 C 5.183594 17.136719 -3.457031 30.964844 -14.113281 30.964844 C -14.257812 30.964844 -14.402344 31.105469 -14.402344 31.394531 C -14.402344 31.539062 -14.257812 31.683594 -14.113281 31.683594 C 3.3125 31.683594 17.570312 17.570312 17.570312 0 L 17.570312 -100.378906 C 17.570312 -100.523438 17.425781 -100.808594 17.136719 -100.808594 L 15.121094 -100.808594 C 15.121094 -100.808594 15.121094 -100.667969 15.121094 -100.667969 L 5.472656 -100.667969 C 5.328125 -100.667969 5.183594 -100.523438 5.183594 -100.378906 C 5.183594 -100.089844 5.328125 -99.945312 5.472656 -99.945312 L 11.234375 -99.945312 C 7.632812 -98.507812 5.183594 -94.90625 5.183594 -90.730469 Z M 5.183594 -90.730469 "/></g></g></g><g clip-path="url(#a5ac5fbc64)"><path fill="#f8f8f8" d="M 166.503906 178.179688 L 317.953125 178.179688 L 317.953125 202.410156 L 166.503906 202.410156 Z M 166.503906 178.179688 " fill-opacity="1" fill-rule="nonzero"/></g><g fill="#000000" fill-opacity="1"><g transform="translate(150.847487, 227.679513)"><g><path d="M 68.261719 -25.058594 C 68.261719 -39.027344 56.742188 -50.550781 42.773438 -50.550781 L 30.386719 -50.550781 C 23.1875 -50.550781 17.28125 -61.636719 17.28125 -75.175781 C 17.28125 -88.855469 23.1875 -99.945312 30.386719 -99.945312 L 42.773438 -99.945312 C 56.308594 -99.945312 67.398438 -88.855469 67.398438 -75.175781 C 67.398438 -75.03125 67.542969 -74.886719 67.832031 -74.886719 C 67.976562 -74.886719 68.117188 -75.03125 68.117188 -75.175781 C 68.117188 -89.289062 56.742188 -100.808594 42.773438 -100.808594 L 30.386719 -100.808594 C 16.273438 -100.808594 4.898438 -89.289062 4.898438 -75.175781 C 4.898438 -61.207031 16.273438 -49.683594 30.386719 -49.683594 L 42.773438 -49.683594 C 49.972656 -49.683594 55.734375 -38.597656 55.734375 -25.058594 C 55.734375 -11.378906 49.972656 -0.289062 42.773438 -0.289062 L 30.386719 -0.289062 C 16.707031 -0.289062 5.617188 -11.378906 5.617188 -25.058594 C 5.617188 -25.203125 5.472656 -25.492188 5.183594 -25.492188 C 5.039062 -25.492188 4.898438 -25.203125 4.898438 -25.058594 C 4.898438 -10.945312 16.273438 0.433594 30.386719 0.433594 L 42.773438 0.433594 C 56.742188 0.433594 68.261719 -10.945312 68.261719 -25.058594 Z M 68.261719 -25.058594 "/></g></g></g><g fill="#000000" fill-opacity="1"><g transform="translate(66.83719, 274.402643)"><g><path d="M 10.609375 -21.578125 L 10.609375 -4.375 C 10.609375 -3.050781 10.191406 -1.953125 9.359375 -1.078125 C 8.535156 -0.210938 7.382812 0.21875 5.90625 0.21875 C 4.320312 0.21875 3.09375 -0.269531 2.21875 -1.25 C 1.351562 -2.238281 0.921875 -3.585938 0.921875 -5.296875 L 1.53125 -5.296875 C 1.53125 -3.867188 1.875 -2.6875 2.5625 -1.75 C 3.257812 -0.8125 4.375 -0.34375 5.90625 -0.34375 C 7.363281 -0.34375 8.40625 -0.742188 9.03125 -1.546875 C 9.664062 -2.347656 9.984375 -3.289062 9.984375 -4.375 L 9.984375 -21.578125 Z M 10.609375 -21.578125 "/></g></g></g><g fill="#000000" fill-opacity="1"><g transform="translate(79.891785, 274.402643)"><g><path d="M 9.921875 0.21875 C 8.390625 0.21875 7.007812 -0.125 5.78125 -0.8125 C 4.5625 -1.5 3.597656 -2.476562 2.890625 -3.75 C 2.191406 -5.03125 1.84375 -6.535156 1.84375 -8.265625 C 1.84375 -10.003906 2.191406 -11.507812 2.890625 -12.78125 C 3.597656 -14.0625 4.5625 -15.046875 5.78125 -15.734375 C 7.007812 -16.421875 8.390625 -16.765625 9.921875 -16.765625 C 11.453125 -16.765625 12.832031 -16.421875 14.0625 -15.734375 C 15.289062 -15.046875 16.25 -14.0625 16.9375 -12.78125 C 17.632812 -11.507812 17.984375 -10.003906 17.984375 -8.265625 C 17.984375 -6.535156 17.632812 -5.03125 16.9375 -3.75 C 16.25 -2.476562 15.289062 -1.5 14.0625 -0.8125 C 12.832031 -0.125 11.453125 0.21875 9.921875 0.21875 Z M 9.921875 -0.34375 C 11.253906 -0.34375 12.484375 -0.628906 13.609375 -1.203125 C 14.734375 -1.785156 15.640625 -2.671875 16.328125 -3.859375 C 17.023438 -5.046875 17.375 -6.515625 17.375 -8.265625 C 17.375 -10.023438 17.023438 -11.5 16.328125 -12.6875 C 15.640625 -13.875 14.734375 -14.753906 13.609375 -15.328125 C 12.484375 -15.910156 11.253906 -16.203125 9.921875 -16.203125 C 8.597656 -16.203125 7.367188 -15.910156 6.234375 -15.328125 C 5.097656 -14.753906 4.179688 -13.867188 3.484375 -12.671875 C 2.796875 -11.472656 2.453125 -10.003906 2.453125 -8.265625 C 2.453125 -6.535156 2.796875 -5.070312 3.484375 -3.875 C 4.179688 -2.675781 5.097656 -1.785156 6.234375 -1.203125 C 7.367188 -0.628906 8.597656 -0.34375 9.921875 -0.34375 Z M 9.921875 -0.34375 "/></g></g></g><g fill="#000000" fill-opacity="1"><g transform="translate(99.718834, 274.402643)"><g><path d="M 9.71875 -16.90625 C 11.65625 -16.90625 13.242188 -16.300781 14.484375 -15.09375 C 15.734375 -13.894531 16.359375 -12.082031 16.359375 -9.65625 L 16.359375 0 L 15.78125 0 L 15.78125 -9.71875 C 15.78125 -11.882812 15.238281 -13.53125 14.15625 -14.65625 C 13.070312 -15.789062 11.59375 -16.359375 9.71875 -16.359375 C 7.75 -16.359375 6.171875 -15.71875 4.984375 -14.4375 C 3.804688 -13.164062 3.21875 -11.285156 3.21875 -8.796875 L 3.21875 0 L 2.609375 0 L 2.609375 -16.546875 L 3.21875 -16.546875 L 3.21875 -12.1875 C 3.601562 -13.726562 4.378906 -14.898438 5.546875 -15.703125 C 6.710938 -16.503906 8.101562 -16.90625 9.71875 -16.90625 Z M 9.71875 -16.90625 "/></g></g></g><g fill="#000000" fill-opacity="1"><g transform="translate(118.534613, 274.402643)"><g><path d="M 1.84375 -8.265625 C 1.84375 -10.003906 2.175781 -11.507812 2.84375 -12.78125 C 3.519531 -14.0625 4.46875 -15.046875 5.6875 -15.734375 C 6.914062 -16.421875 8.316406 -16.765625 9.890625 -16.765625 C 11.796875 -16.765625 13.40625 -16.265625 14.71875 -15.265625 C 16.039062 -14.273438 16.925781 -13.015625 17.375 -11.484375 L 17.375 -16.546875 L 17.953125 -16.546875 L 17.953125 0 L 17.375 0 L 17.375 -5.0625 C 16.925781 -3.519531 16.039062 -2.253906 14.71875 -1.265625 C 13.40625 -0.273438 11.796875 0.21875 9.890625 0.21875 C 8.316406 0.21875 6.914062 -0.125 5.6875 -0.8125 C 4.46875 -1.5 3.519531 -2.476562 2.84375 -3.75 C 2.175781 -5.03125 1.84375 -6.535156 1.84375 -8.265625 Z M 17.375 -8.265625 C 17.375 -9.835938 17.050781 -11.222656 16.40625 -12.421875 C 15.757812 -13.617188 14.867188 -14.546875 13.734375 -15.203125 C 12.609375 -15.867188 11.328125 -16.203125 9.890625 -16.203125 C 8.378906 -16.203125 7.066406 -15.882812 5.953125 -15.25 C 4.847656 -14.625 3.988281 -13.710938 3.375 -12.515625 C 2.757812 -11.316406 2.453125 -9.898438 2.453125 -8.265625 C 2.453125 -6.640625 2.757812 -5.226562 3.375 -4.03125 C 3.988281 -2.832031 4.847656 -1.914062 5.953125 -1.28125 C 7.066406 -0.65625 8.378906 -0.34375 9.890625 -0.34375 C 11.328125 -0.34375 12.609375 -0.671875 13.734375 -1.328125 C 14.867188 -1.992188 15.757812 -2.921875 16.40625 -4.109375 C 17.050781 -5.304688 17.375 -6.691406 17.375 -8.265625 Z M 17.375 -8.265625 "/></g></g></g><g fill="#000000" fill-opacity="1"><g transform="translate(139.097138, 274.402643)"><g><path d="M 3.921875 -15.9375 L 3.921875 -4.34375 C 3.921875 -3.34375 4.03125 -2.578125 4.25 -2.046875 C 4.476562 -1.515625 4.835938 -1.140625 5.328125 -0.921875 C 5.816406 -0.710938 6.503906 -0.609375 7.390625 -0.609375 L 9.125 -0.609375 L 9.125 0 L 7.328125 0 C 5.890625 0 4.859375 -0.328125 4.234375 -0.984375 C 3.617188 -1.640625 3.3125 -2.757812 3.3125 -4.34375 L 3.3125 -15.9375 L 0.609375 -15.9375 L 0.609375 -16.546875 L 3.3125 -16.546875 L 3.3125 -20.78125 L 3.921875 -20.78125 L 3.921875 -16.546875 L 9.125 -16.546875 L 9.125 -15.9375 Z M 3.921875 -15.9375 "/></g></g></g><g fill="#000000" fill-opacity="1"><g transform="translate(149.455014, 274.402643)"><g><path d="M 9.71875 -16.90625 C 11.65625 -16.90625 13.242188 -16.300781 14.484375 -15.09375 C 15.734375 -13.894531 16.359375 -12.082031 16.359375 -9.65625 L 16.359375 0 L 15.78125 0 L 15.78125 -9.71875 C 15.78125 -11.882812 15.238281 -13.53125 14.15625 -14.65625 C 13.070312 -15.789062 11.59375 -16.359375 9.71875 -16.359375 C 7.75 -16.359375 6.171875 -15.71875 4.984375 -14.4375 C 3.804688 -13.164062 3.21875 -11.285156 3.21875 -8.796875 L 3.21875 0 L 2.609375 0 L 2.609375 -22.671875 L 3.21875 -22.671875 L 3.21875 -12.1875 C 3.601562 -13.726562 4.378906 -14.898438 5.546875 -15.703125 C 6.710938 -16.503906 8.101562 -16.90625 9.71875 -16.90625 Z M 9.71875 -16.90625 "/></g></g></g><g fill="#000000" fill-opacity="1"><g transform="translate(168.270793, 274.402643)"><g><path d="M 1.84375 -8.265625 C 1.84375 -10.003906 2.175781 -11.507812 2.84375 -12.78125 C 3.519531 -14.0625 4.46875 -15.046875 5.6875 -15.734375 C 6.914062 -16.421875 8.316406 -16.765625 9.890625 -16.765625 C 11.796875 -16.765625 13.40625 -16.265625 14.71875 -15.265625 C 16.039062 -14.273438 16.925781 -13.015625 17.375 -11.484375 L 17.375 -16.546875 L 17.953125 -16.546875 L 17.953125 0 L 17.375 0 L 17.375 -5.0625 C 16.925781 -3.519531 16.039062 -2.253906 14.71875 -1.265625 C 13.40625 -0.273438 11.796875 0.21875 9.890625 0.21875 C 8.316406 0.21875 6.914062 -0.125 5.6875 -0.8125 C 4.46875 -1.5 3.519531 -2.476562 2.84375 -3.75 C 2.175781 -5.03125 1.84375 -6.535156 1.84375 -8.265625 Z M 17.375 -8.265625 C 17.375 -9.835938 17.050781 -11.222656 16.40625 -12.421875 C 15.757812 -13.617188 14.867188 -14.546875 13.734375 -15.203125 C 12.609375 -15.867188 11.328125 -16.203125 9.890625 -16.203125 C 8.378906 -16.203125 7.066406 -15.882812 5.953125 -15.25 C 4.847656 -14.625 3.988281 -13.710938 3.375 -12.515625 C 2.757812 -11.316406 2.453125 -9.898438 2.453125 -8.265625 C 2.453125 -6.640625 2.757812 -5.226562 3.375 -4.03125 C 3.988281 -2.832031 4.847656 -1.914062 5.953125 -1.28125 C 7.066406 -0.65625 8.378906 -0.34375 9.890625 -0.34375 C 11.328125 -0.34375 12.609375 -0.671875 13.734375 -1.328125 C 14.867188 -1.992188 15.757812 -2.921875 16.40625 -4.109375 C 17.050781 -5.304688 17.375 -6.691406 17.375 -8.265625 Z M 17.375 -8.265625 "/></g></g></g><g fill="#000000" fill-opacity="1"><g transform="translate(188.833318, 274.402643)"><g><path d="M 9.71875 -16.90625 C 11.65625 -16.90625 13.242188 -16.300781 14.484375 -15.09375 C 15.734375 -13.894531 16.359375 -12.082031 16.359375 -9.65625 L 16.359375 0 L 15.78125 0 L 15.78125 -9.71875 C 15.78125 -11.882812 15.238281 -13.53125 14.15625 -14.65625 C 13.070312 -15.789062 11.59375 -16.359375 9.71875 -16.359375 C 7.75 -16.359375 6.171875 -15.71875 4.984375 -14.4375 C 3.804688 -13.164062 3.21875 -11.285156 3.21875 -8.796875 L 3.21875 0 L 2.609375 0 L 2.609375 -16.546875 L 3.21875 -16.546875 L 3.21875 -12.1875 C 3.601562 -13.726562 4.378906 -14.898438 5.546875 -15.703125 C 6.710938 -16.503906 8.101562 -16.90625 9.71875 -16.90625 Z M 9.71875 -16.90625 "/></g></g></g><g fill="#000000" fill-opacity="1"><g transform="translate(207.649098, 274.402643)"><g/></g></g><g fill="#000000" fill-opacity="1"><g transform="translate(216.53603, 274.402643)"><g><path d="M 8.515625 0.21875 C 7.148438 0.21875 5.960938 -0.0234375 4.953125 -0.515625 C 3.941406 -1.003906 3.160156 -1.648438 2.609375 -2.453125 C 2.054688 -3.265625 1.726562 -4.144531 1.625 -5.09375 L 2.234375 -5.09375 C 2.335938 -4.375 2.597656 -3.65625 3.015625 -2.9375 C 3.429688 -2.226562 4.09375 -1.617188 5 -1.109375 C 5.914062 -0.597656 7.085938 -0.34375 8.515625 -0.34375 C 9.660156 -0.34375 10.671875 -0.5625 11.546875 -1 C 12.429688 -1.4375 13.109375 -2.019531 13.578125 -2.75 C 14.046875 -3.488281 14.28125 -4.304688 14.28125 -5.203125 C 14.28125 -6.367188 14.015625 -7.296875 13.484375 -7.984375 C 12.953125 -8.671875 12.289062 -9.175781 11.5 -9.5 C 10.71875 -9.820312 9.660156 -10.160156 8.328125 -10.515625 C 6.941406 -10.878906 5.828125 -11.242188 4.984375 -11.609375 C 4.148438 -11.984375 3.441406 -12.550781 2.859375 -13.3125 C 2.273438 -14.082031 1.984375 -15.117188 1.984375 -16.421875 C 1.984375 -17.359375 2.242188 -18.238281 2.765625 -19.0625 C 3.285156 -19.894531 4.03125 -20.554688 5 -21.046875 C 5.976562 -21.535156 7.085938 -21.78125 8.328125 -21.78125 C 9.597656 -21.78125 10.691406 -21.554688 11.609375 -21.109375 C 12.523438 -20.660156 13.242188 -20.09375 13.765625 -19.40625 C 14.285156 -18.726562 14.628906 -18.007812 14.796875 -17.25 L 14.1875 -17.25 C 14.039062 -17.84375 13.742188 -18.445312 13.296875 -19.0625 C 12.847656 -19.675781 12.203125 -20.191406 11.359375 -20.609375 C 10.523438 -21.023438 9.515625 -21.234375 8.328125 -21.234375 C 7.285156 -21.234375 6.332031 -21.03125 5.46875 -20.625 C 4.601562 -20.226562 3.910156 -19.664062 3.390625 -18.9375 C 2.867188 -18.21875 2.609375 -17.378906 2.609375 -16.421875 C 2.609375 -15.234375 2.878906 -14.285156 3.421875 -13.578125 C 3.960938 -12.878906 4.628906 -12.359375 5.421875 -12.015625 C 6.222656 -11.679688 7.285156 -11.34375 8.609375 -11 C 9.992188 -10.632812 11.097656 -10.269531 11.921875 -9.90625 C 12.753906 -9.550781 13.457031 -9 14.03125 -8.25 C 14.601562 -7.507812 14.890625 -6.492188 14.890625 -5.203125 C 14.890625 -4.304688 14.648438 -3.4375 14.171875 -2.59375 C 13.691406 -1.757812 12.972656 -1.082031 12.015625 -0.5625 C 11.054688 -0.0390625 9.890625 0.21875 8.515625 0.21875 Z M 8.515625 0.21875 "/></g></g></g><g fill="#000000" fill-opacity="1"><g transform="translate(232.961528, 274.402643)"><g><path d="M 2.90625 -20.78125 C 2.6875 -20.78125 2.5 -20.851562 2.34375 -21 C 2.1875 -21.15625 2.109375 -21.359375 2.109375 -21.609375 C 2.109375 -21.847656 2.1875 -22.039062 2.34375 -22.1875 C 2.5 -22.34375 2.6875 -22.421875 2.90625 -22.421875 C 3.132812 -22.421875 3.320312 -22.34375 3.46875 -22.1875 C 3.625 -22.039062 3.703125 -21.847656 3.703125 -21.609375 C 3.703125 -21.359375 3.625 -21.15625 3.46875 -21 C 3.320312 -20.851562 3.132812 -20.78125 2.90625 -20.78125 Z M 3.21875 -16.546875 L 3.21875 0 L 2.609375 0 L 2.609375 -16.546875 Z M 3.21875 -16.546875 "/></g></g></g><g fill="#000000" fill-opacity="1"><g transform="translate(238.783995, 274.402643)"><g><path d="M 21.96875 -16.90625 C 23.8125 -16.90625 25.320312 -16.300781 26.5 -15.09375 C 27.6875 -13.894531 28.28125 -12.082031 28.28125 -9.65625 L 28.28125 0 L 27.703125 0 L 27.703125 -9.71875 C 27.703125 -11.882812 27.191406 -13.53125 26.171875 -14.65625 C 25.148438 -15.789062 23.75 -16.359375 21.96875 -16.359375 C 20.113281 -16.359375 18.613281 -15.695312 17.46875 -14.375 C 16.320312 -13.0625 15.75 -11.148438 15.75 -8.640625 L 15.75 0 L 15.171875 0 L 15.171875 -9.71875 C 15.171875 -11.882812 14.660156 -13.53125 13.640625 -14.65625 C 12.617188 -15.789062 11.21875 -16.359375 9.4375 -16.359375 C 7.5625 -16.359375 6.054688 -15.695312 4.921875 -14.375 C 3.785156 -13.0625 3.21875 -11.148438 3.21875 -8.640625 L 3.21875 0 L 2.609375 0 L 2.609375 -16.546875 L 3.21875 -16.546875 L 3.21875 -12.171875 C 3.625 -13.753906 4.382812 -14.9375 5.5 -15.71875 C 6.613281 -16.507812 7.925781 -16.90625 9.4375 -16.90625 C 10.988281 -16.90625 12.320312 -16.472656 13.4375 -15.609375 C 14.550781 -14.742188 15.257812 -13.429688 15.5625 -11.671875 C 15.925781 -13.429688 16.6875 -14.742188 17.84375 -15.609375 C 19 -16.472656 20.375 -16.90625 21.96875 -16.90625 Z M 21.96875 -16.90625 "/></g></g></g><g fill="#000000" fill-opacity="1"><g transform="translate(269.520512, 274.402643)"><g><path d="M 9.921875 0.21875 C 8.390625 0.21875 7.007812 -0.125 5.78125 -0.8125 C 4.5625 -1.5 3.597656 -2.476562 2.890625 -3.75 C 2.191406 -5.03125 1.84375 -6.535156 1.84375 -8.265625 C 1.84375 -10.003906 2.191406 -11.507812 2.890625 -12.78125 C 3.597656 -14.0625 4.5625 -15.046875 5.78125 -15.734375 C 7.007812 -16.421875 8.390625 -16.765625 9.921875 -16.765625 C 11.453125 -16.765625 12.832031 -16.421875 14.0625 -15.734375 C 15.289062 -15.046875 16.25 -14.0625 16.9375 -12.78125 C 17.632812 -11.507812 17.984375 -10.003906 17.984375 -8.265625 C 17.984375 -6.535156 17.632812 -5.03125 16.9375 -3.75 C 16.25 -2.476562 15.289062 -1.5 14.0625 -0.8125 C 12.832031 -0.125 11.453125 0.21875 9.921875 0.21875 Z M 9.921875 -0.34375 C 11.253906 -0.34375 12.484375 -0.628906 13.609375 -1.203125 C 14.734375 -1.785156 15.640625 -2.671875 16.328125 -3.859375 C 17.023438 -5.046875 17.375 -6.515625 17.375 -8.265625 C 17.375 -10.023438 17.023438 -11.5 16.328125 -12.6875 C 15.640625 -13.875 14.734375 -14.753906 13.609375 -15.328125 C 12.484375 -15.910156 11.253906 -16.203125 9.921875 -16.203125 C 8.597656 -16.203125 7.367188 -15.910156 6.234375 -15.328125 C 5.097656 -14.753906 4.179688 -13.867188 3.484375 -12.671875 C 2.796875 -11.472656 2.453125 -10.003906 2.453125 -8.265625 C 2.453125 -6.535156 2.796875 -5.070312 3.484375 -3.875 C 4.179688 -2.675781 5.097656 -1.785156 6.234375 -1.203125 C 7.367188 -0.628906 8.597656 -0.34375 9.921875 -0.34375 Z M 9.921875 -0.34375 "/></g></g></g><g fill="#000000" fill-opacity="1"><g transform="translate(289.34756, 274.402643)"><g><path d="M 9.71875 -16.90625 C 11.65625 -16.90625 13.242188 -16.300781 14.484375 -15.09375 C 15.734375 -13.894531 16.359375 -12.082031 16.359375 -9.65625 L 16.359375 0 L 15.78125 0 L 15.78125 -9.71875 C 15.78125 -11.882812 15.238281 -13.53125 14.15625 -14.65625 C 13.070312 -15.789062 11.59375 -16.359375 9.71875 -16.359375 C 7.75 -16.359375 6.171875 -15.71875 4.984375 -14.4375 C 3.804688 -13.164062 3.21875 -11.285156 3.21875 -8.796875 L 3.21875 0 L 2.609375 0 L 2.609375 -16.546875 L 3.21875 -16.546875 L 3.21875 -12.1875 C 3.601562 -13.726562 4.378906 -14.898438 5.546875 -15.703125 C 6.710938 -16.503906 8.101562 -16.90625 9.71875 -16.90625 Z M 9.71875 -16.90625 "/></g></g></g></svg>